<?xml version="1.0" encoding="utf-8"?>
<!-- Generator: Adobe Illustrator 22.1.0, SVG Export Plug-In . SVG Version: 6.00 Build 0)  -->
<svg version="1.1" id="Layer_1" xmlns="http://www.w3.org/2000/svg" xmlns:xlink="http://www.w3.org/1999/xlink" x="0px" y="0px"
	 viewBox="0 0 159.8 55" style="enable-background:new 0 0 159.8 55;" xml:space="preserve">
<style type="text/css">
	.st0{fill:#FFFFFF;}
</style>
<g id="PB_Small_Use_Logo_2_">
	<g id="Logo">
		<g id="Symbol_1_">
			<path id="pb_outer" class="st0" d="M132.3,14c-7.5,0-13.5,6-13.5,13.5c0,7.5,6,13.5,13.5,13.5c7.5,0,13.5-6,13.5-13.5
				C145.8,20,139.8,14,132.3,14z M132.3,40.3c-7.1,0-12.8-5.7-12.8-12.8c0-7.1,5.7-12.8,12.8-12.8c7.1,0,12.8,5.7,12.8,12.8
				C145.1,34.6,139.4,40.3,132.3,40.3z M127.9,17.3c0,0-0.1,0-0.2,0c-3.9,1.8-6.6,5.7-6.6,10.2c0,6.2,5,11.2,11.2,11.2
				c6.2,0,11.2-5,11.2-11.2c0-6.2-5-11.2-11.2-11.2c-0.1,0-0.2,0-0.3,0c-0.2,0-0.4,0.2-0.4,0.4c0,0.3,0.1,0.4,0.4,0.4
				c0.1,0,0.2,0,0.3,0c5.7,0,10.3,4.6,10.3,10.3c0,5.7-4.6,10.3-10.3,10.3c-5.7,0-10.3-4.6-10.3-10.3c0-4,2.4-7.7,6.1-9.4
				c0.2-0.1,0.3-0.3,0.1-0.5C128.1,17.4,128,17.3,127.9,17.3z M127.7,20c-0.1,0-0.2,0-0.2,0.1c-2.5,1.6-4,4.4-4,7.4
				c0,3,1.5,5.8,4,7.4c0.1,0.1,0.2,0.1,0.2,0.1c0.2,0,0.3-0.1,0.4-0.3c0.2-0.3,0.1-0.5-0.1-0.7l0,0c-2.2-1.4-3.5-3.9-3.5-6.5
				c0-2.6,1.3-5.1,3.5-6.5c0.1-0.1,0.2-0.2,0.2-0.3c0-0.1,0-0.3-0.1-0.4C128,20.1,127.9,20,127.7,20z M132.2,35.3
				c-0.1,0-0.2,0-0.3,0.1c-0.1,0.1-0.1,0.2-0.1,0.4c0,0.3,0.2,0.5,0.4,0.5c0.1,0,0.1,0,0.2,0c4.9,0,8.8-4,8.8-8.8s-4-8.8-8.8-8.8
				c-0.1,0-0.1,0-0.2,0c-0.3,0-0.4,0.2-0.4,0.5c0,0.3,0.2,0.5,0.4,0.5c0.1,0,0.1,0,0.2,0c4.3,0,7.8,3.5,7.8,7.8
				c0,4.3-3.5,7.8-7.8,7.8C132.3,35.3,132.2,35.3,132.2,35.3z M127.1,23.7c0.2-0.3,0.5-0.3,0.8-0.1c0.3,0.2,0.4,0.6,0.2,0.8
				c-0.6,0.9-1,1.9-1,3c0,1.1,0.3,2.2,1,3c0.2,0.3,0.1,0.6-0.2,0.8c-0.3,0.2-0.6,0.2-0.8-0.1c-0.8-1.1-1.2-2.4-1.2-3.8
				C125.9,26.1,126.3,24.8,127.1,23.7z"/>
			<path id="pb_inner" class="st0" d="M132.4,31.1c-0.4,0-0.7-0.3-0.7-0.8c0-0.5,0.2-0.8,0.7-0.8c1.2-0.1,2-1,2-2.1
				c0-1.1-1-2.1-2.2-2.1c-0.6,0-1.1,0.2-1.5,0.5v9.6c0,0.5-0.3,0.7-0.8,0.7c-0.5,0-0.8-0.2-0.8-0.7V26c0,0,0-0.6,0-0.7
				c0-0.2,0.2-0.5,0.6-0.7c0.7-0.4,1.7-0.7,2.5-0.7c2,0,3.6,1.6,3.6,3.6C136,29.4,134.4,31.1,132.4,31.1z M132.4,33.9
				c-0.4,0-0.7-0.3-0.7-0.8c0-0.5,0.2-0.8,0.7-0.8c2.7,0,4.8-2.2,4.8-4.9c0-2.8-2.3-4.9-4.8-4.9c-1.3,0-1.3,0.2-2.2,0.5
				c-0.5,0.2-0.9-0.2-0.9-0.7v-5.8c0-0.4,0.3-0.7,0.8-0.7c0.5,0,0.8,0.3,0.8,0.7v4.7c0.5-0.1,1.1-0.2,1.6-0.2c2.6,0,4.9,1.6,5.9,3.9
				C140,29.2,137,33.9,132.4,33.9z"/>
		</g>
		<path id="Wordmark" class="st0" d="M107.5,31.9c0.6,0.4,1.6,0.7,2.6,0.7c2.2,0,3.5-1.1,3.5-2.9c0-1.4-0.7-2.1-2.8-2.8
			c-1.3-0.4-1.9-0.9-1.9-1.5c0-0.8,0.7-1.3,1.7-1.3c0.9,0,1.8,0.2,2.6,0.7v-1.3c-0.5-0.4-1.6-0.7-2.6-0.7c-2,0-3.2,0.9-3.2,2.5
			c0,1.2,0.7,2.1,2.4,2.6c1.6,0.5,2.3,0.9,2.3,1.8c0,1-0.8,1.6-2,1.6c-1,0-2.1-0.3-2.6-0.7V31.9z M99.3,26.9
			c0.2-1.7,1.1-2.7,2.7-2.7c1.7,0,2.5,0.9,2.5,2.7H99.3z M105.7,30.7c-0.7,0.4-1.9,0.6-3,0.6c-2.3,0-3.4-1.1-3.5-3.2h6.7
			c0-0.3,0.1-0.8,0.1-1c0-2.6-1.3-4.2-3.9-4.2c-2.9,0-4.3,2.1-4.3,4.9c0,3.1,1.6,4.8,4.8,4.8c1.3,0,2.5-0.2,3.2-0.7V30.7z
			 M94.4,32.4l2.7-9.3h-1.4l-1.9,7.3l-2.1-7.3h-1.6l-2.1,7.4l-1.9-7.4h-1.6l2.7,9.3h1.5l2.2-7.4l2.1,7.4H94.4z M79.3,31.3
			c-1.9,0-2.9-1.4-2.9-3.6c0-2.2,1-3.6,2.9-3.6c1.9,0,2.9,1.4,2.9,3.6C82.2,29.9,81.1,31.3,79.3,31.3z M79.3,32.6
			c3,0,4.4-2.2,4.4-4.9c0-2.7-1.3-4.9-4.4-4.9c-2.9,0-4.4,2.2-4.4,4.9C74.9,30.5,76.1,32.6,79.3,32.6z M66.6,24.6
			c0.7-0.3,1.3-0.5,2.2-0.5c2,0,3.2,1.3,3.2,3.3c0,2.5-1.4,3.9-3.8,3.9c-0.7,0-1.1-0.1-1.6-0.3V24.6z M65.2,32.1
			c0.9,0.3,1.9,0.5,2.9,0.5c3.4,0,5.4-1.9,5.4-5.2c0-2.8-1.7-4.6-4.5-4.6c-0.8,0-1.6,0.1-2.3,0.5v-4.6h-1.5V32.1z M56.1,37.1
			l1.8-4.7l3.7-9.3h-1.6l-2.8,7.6l-2.8-7.6h-1.7l3.7,9.3l-1.8,4.7H56.1z M45.2,26.9c0.2-1.7,1.1-2.7,2.7-2.7c1.7,0,2.5,0.9,2.5,2.7
			H45.2z M51.7,30.7c-0.7,0.4-1.9,0.6-3,0.6c-2.3,0-3.4-1.1-3.5-3.2h6.7c0-0.3,0.1-0.8,0.1-1c0-2.6-1.3-4.2-3.9-4.2
			c-2.9,0-4.3,2.1-4.3,4.9c0,3.1,1.6,4.8,4.8,4.8c1.3,0,2.5-0.2,3.2-0.7V30.7z M42.1,32.4v-6.1c0-2.6-1.6-3.4-3.6-3.4
			c-1.4,0-3,0.3-4.2,0.8v8.7h1.5v-7.8c0.6-0.2,1.5-0.4,2.4-0.4c1.7,0,2.5,0.6,2.5,2.6v5.6H42.1z M32.9,31.1c-0.5,0.1-1,0.2-1.6,0.2
			c-0.7,0-1.1-0.2-1.1-1.4v-5.6h2.4v-1.2h-2.4v-2.3h-1.4v2.3h-1.5v1.2h1.5v5.9c0,1.7,0.9,2.4,2.2,2.4c0.8,0,1.4-0.1,2-0.3V31.1z
			 M24.9,21.4c0.5,0,0.9-0.4,0.9-0.9c0-0.5-0.4-1-0.9-1c-0.5,0-1,0.4-1,1C23.9,20.9,24.3,21.4,24.9,21.4z M25.6,23.1h-1.5v9.3h1.5
			V23.1z M15.5,24.7c0.6-0.4,1.3-0.6,2.2-0.6c2,0,3.1,1.3,3.1,3.3c0,2.5-1.4,3.9-3.8,3.9c-0.7,0-1.1-0.1-1.6-0.3V24.7z M15.5,37.1
			v-4.7c0.5,0.1,1,0.2,1.5,0.2c3.3,0,5.4-1.9,5.4-5.2c0-2.8-1.8-4.6-4.5-4.6c-1.3,0-2.7,0.4-3.8,1.3v12.9H15.5z"/>
	</g>
</g>
<path class="st0" d="M142.9,39.5c0-0.8,0.6-1.4,1.4-1.4c0.8,0,1.4,0.6,1.4,1.4s-0.6,1.4-1.4,1.4C143.5,40.9,142.9,40.3,142.9,39.5z
	 M145.5,39.5c0-0.7-0.5-1.2-1.2-1.2c-0.7,0-1.2,0.5-1.2,1.2s0.5,1.2,1.2,1.2C145,40.7,145.5,40.2,145.5,39.5z M144.7,40.2l-0.6-0.8
	h0.1c0.3,0,0.4-0.1,0.4-0.3c0-0.2-0.1-0.3-0.3-0.3c-0.1,0-0.1,0-0.2,0v1.3h-0.2v-1.5c0.1,0,0.2,0,0.4,0c0.4,0,0.6,0.2,0.6,0.5
	c0,0.2-0.1,0.4-0.4,0.4l0.5,0.6H144.7z"/>
</svg>
